# xmcd
#
# Track frame offsets:
#	183
#	18393
#	29710
#	47368
#	66325
#	81603
#	97465
#	111370
#	129008
#	143645
#	157148
#	169998
#	183090
#	196270
#	208528
#	219908
#	231308
#	249505
#	263065
#	279760
#
# Disc length: 3960 seconds
#
# Revision: 0
# Processed by: cddbd v1.5.2PL0 Copyright (c) Steve Scherf et al.
# Submitted via: audiograbber 1.83.01
#
DISCID=230f7614
DTITLE=Roto Noto - Border De Fences
DYEAR=1991
DGENRE=
TTITLE0=Cracy Infatuation -Diane Raeside 
TTITLE1=The Best Years -Mark LaForme 
TTITLE2=Gotta Get My Love To You -Lisa Logan
TTITLE3=Lady In Red -Johnny Lee
TTITLE4=What In The Name Of Love -Kim Doolite
TTITLE5=From Dallas To Denver
TTITLE6=Now And Forever -The Chambers Sisters
TTITLE7=Is It Me -Timberline
TTITLE8=Country Station, Rescue Me -Cori Brewster
TTITLE9=In The Mind Of My Woman -Lindsay Thomas and Paula Manderson
TTITLE10=Money In My Pocket -Jack Diamond
TTITLE11=Oklahoma Girl -Lezlee Ann
TTITLE12=Stronger -Roe McCaw
TTITLE13=One More Second Chance -Randall Cousins
TTITLE14=If Not For Love -Jenny Lee West
TTITLE15=One Man Strong -Barry Hancock
TTITLE16=Then You Came True -Franklyn Alexander
TTITLE17=Singin A Love Song -Dieter Boehme
TTITLE18=Jessica Lee -Ross Tonkin
TTITLE19=Good Bye Girl -Belloni Poni
EXTD=
EXTT0=
EXTT1=
EXTT2=
EXTT3=
EXTT4=
EXTT5=
EXTT6=
EXTT7=
EXTT8=
EXTT9=
EXTT10=
EXTT11=
EXTT12=
EXTT13=
EXTT14=
EXTT15=
EXTT16=
EXTT17=
EXTT18=
EXTT19=
PLAYORDER=
